Coordinates
version=1
nRows=49
nColumns=12
inDegrees=yes

Units are S.I. units (second, meters, Newtons, ...)
Angles are in degrees

endheader
time	SC_y	SC_z	SC_x	AC_y	AC_z	AC_x	GH_y	GH_z	GH_yy	EL_x	PS_y
       0.0              -41.34          39.39          26.71          44.54         -12.67         -13.39         -105.4         -1.004         -72.94          97.49          78.82
   0.02993              -41.34          39.39          26.71          44.54         -12.67         -13.39         -105.4         -1.001         -72.95           97.5          78.82
   0.05985              -41.35          39.39          26.71          44.54         -12.67         -13.39         -105.4        -0.9976         -72.96           97.5          78.81
   0.08978              -41.35          39.39          26.72          44.54         -12.67         -13.39         -105.4        -0.9941         -72.96           97.5          78.81
    0.1197              -41.35          39.39          26.72          44.55         -12.67         -13.39         -105.4        -0.9904         -72.97          97.51          78.81
    0.1496              -41.35          39.39          26.73          44.55         -12.67         -13.38         -105.4        -0.9864         -72.98          97.51          78.81
    0.1796              -41.35          39.38          26.74          44.55         -12.66         -13.38         -105.4        -0.9822         -72.99          97.52          78.81
    0.2095              -41.36          39.38          26.74          44.56         -12.66         -13.38         -105.4        -0.9776          -73.0          97.52           78.8
    0.2394              -41.36          39.38          26.75          44.56         -12.66         -13.37         -105.4        -0.9728         -73.02          97.53           78.8
    0.2693              -41.36          39.38          26.76          44.56         -12.66         -13.37         -105.4        -0.9676         -73.03          97.53           78.8
    0.2993              -41.36          39.38          26.77          44.57         -12.65         -13.37         -105.4         -0.962         -73.04          97.54           78.8
    0.3292              -41.37          39.37          26.77          44.57         -12.65         -13.37         -105.4         -0.956         -73.06          97.54          78.79
    0.3591              -41.37          39.37          26.78          44.58         -12.65         -13.36         -105.4        -0.9495         -73.07          97.55          78.79
     0.389              -41.38          39.37          26.79          44.58         -12.64         -13.36         -105.4        -0.9425         -73.09          97.56          78.79
     0.419              -41.38          39.37           26.8          44.59         -12.64         -13.35         -105.4        -0.9349         -73.11          97.56          78.78
    0.4489              -41.38          39.36          26.82          44.59         -12.64         -13.35         -105.4        -0.9267         -73.13          97.57          78.78
    0.4788              -41.39          39.36          26.83           44.6         -12.63         -13.34         -105.4        -0.9177         -73.15          97.58          78.78
    0.5087              -41.39          39.36          26.84          44.61         -12.63         -13.34         -105.4         -0.908         -73.17          97.59          78.77
    0.5387               -41.4          39.35          26.86          44.62         -12.62         -13.33         -105.4        -0.8973          -73.2           97.6          78.77
    0.5686              -41.41          39.35          26.87          44.63         -12.62         -13.32         -105.4        -0.8857         -73.23          97.61          78.76
    0.5985              -41.41          39.35          26.89          44.63         -12.61         -13.32         -105.4        -0.8729         -73.26          97.63          78.75
    0.6284              -41.42          39.34          26.91          44.65          -12.6         -13.31         -105.4        -0.8588         -73.29          97.64          78.75
    0.6584              -41.43          39.34          26.93          44.66          -12.6          -13.3         -105.4        -0.8433         -73.33          97.65          78.74
    0.6883              -41.44          39.33          26.96          44.67         -12.59         -13.29         -105.4        -0.8261         -73.37          97.67          78.73
    0.7182              -41.45          39.32          26.99          44.68         -12.58         -13.28         -105.4        -0.8069         -73.42          97.69          78.72
    0.7481              -41.46          39.32          27.02           44.7         -12.57         -13.27         -105.4        -0.7856         -73.47          97.71          78.71
    0.7781              -41.48          39.31          27.05          44.72         -12.56         -13.25         -105.4        -0.7617         -73.53          97.74           78.7
     0.808              -41.49           39.3          27.09          44.74         -12.54         -13.24         -105.4        -0.7347         -73.59          97.76          78.69
    0.8379              -41.51          39.29          27.13          44.76         -12.53         -13.22         -105.4        -0.7043         -73.67          97.79          78.67
    0.8679              -41.53          39.28          27.18          44.79         -12.51          -13.2         -105.4        -0.6698         -73.75          97.83          78.65
    0.8978              -41.55          39.26          27.24          44.82         -12.49         -13.18         -105.4        -0.6304         -73.84          97.87          78.63
    0.9277              -41.57          39.25           27.3          44.85         -12.47         -13.15         -105.4        -0.5851         -73.95          97.91          78.61
    0.9576               -41.6          39.23          27.38          44.89         -12.44         -13.12         -105.4        -0.5329         -74.08          97.96          78.59
    0.9876              -41.64          39.21          27.46          44.93         -12.41         -13.08         -105.4        -0.4722         -74.23          98.02          78.56
     1.017              -41.67          39.18          27.56          44.99         -12.38         -13.04         -105.4        -0.4012          -74.4          98.09          78.52
     1.047              -41.72          39.15          27.68          45.05         -12.34         -12.99         -105.4        -0.3175          -74.6          98.18          78.48
     1.077              -41.78          39.12          27.82          45.12         -12.29         -12.94         -105.4        -0.2181         -74.84          98.28          78.43
     1.107              -41.84          39.08          27.99          45.21         -12.23         -12.87         -105.4       -0.09884         -75.13           98.4          78.37
     1.137              -41.92          39.03           28.2          45.32         -12.16         -12.78         -105.4         0.0454         -75.48          98.54           78.3
     1.167              -42.02          38.97          28.45          45.45         -12.07         -12.68         -105.4         0.2216         -75.91          98.71          78.22
     1.197              -42.14          38.89          28.76          45.62         -11.97         -12.56         -105.4         0.4391         -76.44          98.93          78.11
     1.227              -42.29           38.8          29.14          45.82         -11.83          -12.4         -105.3         0.7103         -77.09           99.2          77.98
     1.257              -42.48          38.68          29.63          46.07         -11.67          -12.2         -105.3          1.052         -77.92          99.54          77.81
     1.287              -42.72          38.53          30.25           46.4         -11.45         -11.95         -105.3          1.486         -78.97          99.97           77.6
     1.317              -43.03          38.34          31.04          46.82         -11.18         -11.62         -105.3          2.042         -80.32          100.5          77.32
     1.347              -43.42          38.09          32.05          47.35         -10.83         -11.21         -105.3          2.755         -82.05          101.2          76.97
     1.377              -43.92          37.78          33.34          48.03         -10.38         -10.68         -105.3          3.667         -84.26          102.1          76.53
     1.407              -44.56          37.38          34.97          48.89         -9.821         -10.02         -105.2          4.812         -87.03          103.3          75.97
     1.436              -45.33           36.9          36.96          49.93         -9.136         -9.205         -105.2          6.208         -90.41          104.7          75.28
